# xmcd CD database file
#
# Track frame offsets:
#	150
#	20767
#	40082
#	54875
#	73462
#	97415
#	104182
#	124975
#	144462
#	150300
#	174072
#	191125
#
# Disc length: 2814 seconds
#
# Revision: 0
# Processed by: cddbd v1.5PL3 Copyright (c) Steve Scherf et al.
# Submitted via: CDex 1.50
#
DISCID=af0afc0c
DTITLE=day after tomorrow - elements
DYEAR=2003
DGENRE=JPop
TTITLE0=High-Spirit
TTITLE1=Time Of Destiny
TTITLE2=ありふれた日常を捨てて
TTITLE3=Sentence
TTITLE4=Stay in my heart
TTITLE5=Oval
TTITLE6=Losing myself
TTITLE7=FUNNY DAYs
TTITLE8=Morning glow
TTITLE9=grow
TTITLE10=naturally
TTITLE11=flower of youth
EXTD=YEAR: 2003
EXTT0=
EXTT1=
EXTT2=
EXTT3=
EXTT4=
EXTT5=
EXTT6=
EXTT7=
EXTT8=
EXTT9=
EXTT10=
EXTT11=
PLAYORDER=
